<?xml version="1.0" encoding="UTF-8"?>
<!-- Created with Inkscape (http://www.inkscape.org/) -->
<svg width="300" height="300" version="1.1" viewBox="0 0 300 300" xml:space="preserve" xmlns="http://www.w3.org/2000/svg" xmlns:cc="http://creativecommons.org/ns#" xmlns:dc="http://purl.org/dc/elements/1.1/" xmlns:rdf="http://www.w3.org/1999/02/22-rdf-syntax-ns#"><metadata><rdf:RDF><cc:Work rdf:about=""><dc:format>image/svg+xml</dc:format><dc:type rdf:resource="http://purl.org/dc/dcmitype/StillImage"/><dc:title/></cc:Work></rdf:RDF></metadata><g transform="matrix(1.3333 0 0 -1.3333 -340.45 874.71)"><g transform="matrix(2.1909 0 0 2.1909 -302.57 -511.81)"><g fill-rule="evenodd"><path d="m306 532.04c27.803 0 50.342-22.538 50.342-50.342 0-27.803-22.539-50.342-50.342-50.342-27.803 0-50.342 22.539-50.342 50.342 0 27.803 22.539 50.342 50.342 50.342" fill="#fefefe"/><path d="m306 532.36c27.976 0 50.664-22.688 50.664-50.665 0-27.976-22.688-50.664-50.664-50.664-27.977 0-50.665 22.688-50.665 50.664 0 27.977 22.688 50.665 50.665 50.665zm0-0.8076c27.53 0 49.857-22.327 49.857-49.857 0-27.53-22.327-49.857-49.857-49.857-27.531 0-49.857 22.327-49.857 49.857 0 27.53 22.326 49.857 49.857 49.857" fill="#d7b56d"/><path d="m306 530.23c26.803 0 48.531-21.728 48.531-48.531s-21.728-48.531-48.531-48.531c-26.803 0-48.531 21.728-48.531 48.531s21.728 48.531 48.531 48.531" fill="#dff1fd"/></g><path d="m306 511.78c16.61 0 30.075-13.465 30.075-30.075 0-16.61-13.465-30.075-30.075-30.075-16.61 0-30.075 13.465-30.075 30.075 0 16.61 13.465 30.075 30.075 30.075z" fill="none" stroke="#d7b56d" stroke-miterlimit="22.926" stroke-width="1.6249"/><g><g fill-rule="evenodd"><path d="m306 511.77c16.61 0 30.075-13.465 30.075-30.075 0-16.61-13.465-30.075-30.075-30.075-16.61 0-30.075 13.465-30.075 30.075 0 16.61 13.465 30.075 30.075 30.075" fill="#fffbdb"/><path d="m267.15 483.63 0.9145-2.2788 2.3516 0.7058-1.2113-2.1356 2.018-1.3986-2.4247-0.3847 0.1644-2.4494-1.8125 1.656-1.8125-1.656 0.1645 2.4494-2.4248 0.3847 2.0177 1.3986-1.211 2.1356 2.3517-0.7058z" fill="#ef7f1a"/><path d="m344.46 483.63 0.9145-2.2788 2.3516 0.7058-1.211-2.1356 2.0177-1.3986-2.4247-0.3847 0.1647-2.4494-1.8128 1.656-1.8124-1.656 0.1646 2.4494-2.4247 0.3847 2.0177 1.3986-1.211 2.1356 2.3514-0.7058z" fill="#ef7f1a"/><path d="m294.22 497.61c-0.0124-3.3922-0.0246-6.7845-0.0371-10.176 0.0751-5.3456 2.431-10.535 10.538-15.338 0.411-0.2571 0.8456-0.3875 1.2804-0.3915 0.4349 4e-3 0.8694 0.1344 1.2807 0.3915 8.1065 4.803 10.462 9.9924 10.537 15.338-0.0122 3.3919-0.0246 6.7842-0.0368 10.176-5e-3 1.2367-0.0468 1.0873-1.2535 1.4164-3.4061 0.929-6.9661 1.3933-10.528 1.3953-3.5614-2e-3 -7.1212-0.4663-10.527-1.3953-1.2067-0.3291-1.2489-0.1797-1.2535-1.4164" fill="#fbba00"/><path d="m303.3 464.34h5.3985l24.42 18.049 1.2478-0.9856-24.846-18.364v-0.0674h-0.0913l-3e-4 -3e-4 -3e-4 3e-4h-6.8567l-3e-4 -3e-4 -3e-4 3e-4h-0.0425v0.0314l-24.895 18.4 1.2478 0.9856zm-20.916 17.859 20.602-15.227-1.0307-0.8138-20.601 15.227zm1.519 1.4091 20.601-15.227-1.0307-0.8141-20.601 15.227zm1.5186 1.4088 20.602-15.226-1.0304-0.8139-20.601 15.227zm44.24-2.8176-20.601-15.226 1.0307-0.8144 20.601 15.227zm-1.5185 1.4088-20.601-15.227 1.0307-0.8138 20.601 15.226zm-1.5188 1.4088-20.601-15.226 1.0307-0.8143 20.601 15.226z" fill="#00a0e3"/><path d="m310.2 480.01c-1.4171 4.875-2.7819 9.7319-4.199 14.607-1.417-4.875-2.7819-9.7319-4.1989-14.607 0.7251-0.3878 3.6992-3.1502 4.0705-6.4602v6.8131c-0.4756 0.0629-0.8427 0.47-0.8427 0.9626 0 0.5363 0.4348 0.9712 0.9711 0.9712 0.536 0 0.9709-0.4349 0.9709-0.9712 0-0.4926-0.3671-0.8997-0.8425-0.9626v-6.8134c0.3714 3.3103 3.3452 6.0727 4.0706 6.4605" fill="#fefefe"/><path d="m305.97 472.46c-0.2999 0-0.5428 0.2432-0.5428 0.5431s0.2429 0.5429 0.5428 0.5429 0.5431-0.243 0.5431-0.5429-0.2432-0.5431-0.5431-0.5431" fill="#fefefe"/><path d="m296.93 493.49c0.1502-0.3042 0.3002-0.6083 0.4504-0.9125 0.1602-0.3245 0.1386-0.3339 0.4955-0.3858 0.3507-0.051 0.701-0.1017 1.0514-0.1528-0.2486-0.2423-0.4972-0.4847-0.7458-0.727-0.2407-0.2345-0.2577-0.2183-0.201-0.548 0.0612-0.3577 0.1227-0.7154 0.184-1.0729-0.29 0.1522-0.58 0.3047-0.87 0.4572-0.4082 0.2146-0.3977 0.1741-0.8084-0.0416-0.2634-0.1386-0.527-0.2773-0.7906-0.4156 0.0558 0.3249 0.1117 0.65 0.1675 0.9751 0.0666 0.3892 0.087 0.3813-0.195 0.656-0.2449 0.2389-0.4901 0.4779-0.7353 0.7168 0.3787 0.055 0.7571 0.11 1.1356 0.165 0.2743 0.04 0.2548 0.0564 0.3781 0.3064 0.1613 0.3266 0.3226 0.6532 0.4836 0.9797" fill="#00a0e3"/><path d="m300.96 497.38c0.1503-0.3042 0.3002-0.6084 0.4505-0.9125 0.1601-0.3246 0.1389-0.3339 0.4955-0.3858 0.3506-0.051 0.701-0.1021 1.0516-0.1528-0.2489-0.2424-0.4975-0.4847-0.7461-0.7271-0.2406-0.2347-0.2576-0.2183-0.2009-0.5479 0.0612-0.3578 0.1227-0.7155 0.1839-1.0732-0.29 0.1525-0.5799 0.305-0.8699 0.4575-0.4082 0.2146-0.3977 0.174-0.8085-0.0417-0.2633-0.1386-0.5269-0.2772-0.7903-0.4158 0.0556 0.3251 0.1114 0.6502 0.1673 0.9754 0.0666 0.3892 0.087 0.3812-0.195 0.6559-0.245 0.239-0.4902 0.4779-0.7354 0.7169 0.3788 0.055 0.7572 0.11 1.1359 0.165 0.2741 0.0399 0.2548 0.0561 0.3781 0.3064 0.161 0.3266 0.3223 0.6531 0.4833 0.9797" fill="#e5097f"/><path d="m306 498.99c0.15-0.3042 0.3002-0.6083 0.4504-0.9125 0.1602-0.3246 0.1387-0.3339 0.4955-0.3858 0.3504-0.051 0.701-0.102 1.0514-0.1528-0.2486-0.2423-0.4972-0.4847-0.7458-0.7271-0.2406-0.2347-0.2577-0.2182-0.2012-0.5479 0.0615-0.3577 0.1227-0.7155 0.1842-1.0732-0.29 0.1525-0.58 0.305-0.8699 0.4575-0.4082 0.2146-0.398 0.1741-0.8085-0.0417-0.2636-0.1386-0.5269-0.2772-0.7906-0.4158 0.0559 0.3251 0.1117 0.6503 0.1673 0.9754 0.0669 0.3892 0.0873 0.3813-0.1948 0.6559-0.2452 0.239-0.4904 0.478-0.7353 0.7169 0.3785 0.055 0.7572 0.11 1.1356 0.165 0.2741 0.04 0.2548 0.0561 0.3781 0.3061 0.1613 0.3269 0.3223 0.6534 0.4836 0.98" fill="#e31e24"/><path d="m314.92 493.49c-0.1499-0.3042-0.3002-0.6083-0.4501-0.9125-0.1605-0.3245-0.1389-0.3339-0.4958-0.3858-0.3504-0.051-0.701-0.1017-1.0514-0.1528 0.2486-0.2423 0.4972-0.4847 0.7458-0.727 0.2407-0.2345 0.2577-0.2183 0.2013-0.548-0.0615-0.3577-0.1227-0.7154-0.1843-1.0729 0.29 0.1522 0.58 0.3047 0.87 0.4572 0.4082 0.2146 0.398 0.1741 0.8084-0.0416 0.2637-0.1386 0.527-0.2773 0.7906-0.4156-0.0558 0.3249-0.1117 0.65-0.1672 0.9751-0.0669 0.3892-0.0873 0.3813 0.1947 0.656 0.2452 0.2389 0.4904 0.4779 0.7353 0.7168-0.3784 0.055-0.7571 0.11-1.1355 0.165-0.2742 0.04-0.2549 0.0564-0.3782 0.3064-0.1613 0.3266-0.3223 0.6532-0.4836 0.9797" fill="#78b833"/><path d="m310.88 497.38c-0.15-0.3042-0.3002-0.6084-0.4504-0.9125-0.1602-0.3246-0.1387-0.3339-0.4955-0.3858-0.3504-0.051-0.7011-0.1021-1.0514-0.1528 0.2486-0.2424 0.4972-0.4847 0.7458-0.7271 0.2406-0.2347 0.2576-0.2183 0.2012-0.5479-0.0615-0.3578-0.1227-0.7155-0.1842-1.0732 0.29 0.1525 0.58 0.305 0.8699 0.4575 0.4082 0.2146 0.398 0.174 0.8085-0.0417 0.2636-0.1386 0.5269-0.2772 0.7906-0.4158-0.0559 0.3251-0.1117 0.6502-0.1673 0.9754-0.0669 0.3892-0.0873 0.3812 0.1948 0.6559 0.2452 0.239 0.4901 0.4779 0.7353 0.7169-0.3785 0.055-0.7572 0.11-1.1356 0.165-0.2741 0.0399-0.2548 0.0561-0.3781 0.3064-0.1613 0.3266-0.3223 0.6531-0.4836 0.9797" fill="#ffed00"/></g><path d="m275.27 462.84-4.9501-2.2042c-0.9343-0.4158-1.7133-0.5564-2.3329-0.4193-1.1143 0.2501-2.1034 1.3476-2.9696 3.2936-0.6256 1.4049-0.8782 2.5841-0.7566 3.53 0.068 0.5545 0.2923 1.0142 0.6693 1.3861 0.3756 0.3629 0.8736 0.6826 1.4944 0.959l4.9501 2.2042c0.1347 0.0598 0.2226 0.1358 0.2645 0.226 0.0408 0.0924 0.0488 0.2228 0.0233 0.3994l0.2077 0.0924 1.2303-2.7632-0.2075-0.0925c-0.1089 0.137-0.2098 0.2214-0.3116 0.2532-0.098 0.0306-0.2134 0.0161-0.348-0.044l-4.4048-1.961c-0.51-0.227-0.8728-0.4229-1.0913-0.5865-0.2203-0.1641-0.3765-0.3608-0.47-0.5901-0.2557-0.6092-0.1622-1.4142 0.2846-2.4171 0.4473-1.0052 0.9839-1.6158 1.6075-1.8329 0.2313-0.0797 0.4808-0.093 0.7503-0.0394 0.2679 0.0533 0.6563 0.1916 1.1662 0.4187l4.4048 1.961c0.1346 0.0601 0.2222 0.1363 0.2644 0.2265 0.0409 0.0924 0.0488 0.2228 0.023 0.3994l0.2078 0.0924 1.1596-2.6042-0.2078-0.0924c-0.1131 0.1346-0.2165 0.2185-0.3123 0.25-0.0953 0.0289-0.2106 0.0147-0.3453-0.0451zm0.6905-4.3962-4.568-3.699c-0.1145-0.0929-0.1797-0.1893-0.1967-0.2871-0.0156-0.0998 0.0119-0.2302 0.081-0.3918l-0.1768-0.1431-1.7893 2.2096 0.1766 0.1431c0.1454-0.1029 0.2656-0.155 0.3666-0.1607 0.0992-3e-3 0.2069 0.0406 0.3214 0.1332l6.3626 5.1523c0.1106 0.0896 0.1741 0.1845 0.1914 0.2823 0.0156 0.0998-0.0108 0.2282-0.0808 0.3918l0.1766 0.1431 2.0693-2.5554-0.1766-0.1429c-0.1673 0.1256-0.3158 0.1361-0.4453 0.0309-0.0882-0.0714-0.1432-0.1995-0.1667-0.3897l-0.9536-7.6357 4.4589 3.6107c0.1108 0.0896 0.1741 0.1846 0.1913 0.2827 0.0156 0.0995-0.0104 0.2276-0.081 0.3917l0.1766 0.1432 1.7895-2.2099-0.1766-0.1432c-0.1443 0.1012-0.2656 0.1554-0.3665 0.1607-0.0995 3e-3 -0.2053-0.0388-0.3161-0.1286l-6.3624-5.1523c-0.1145-0.0927-0.18-0.1891-0.197-0.2869-0.0156-0.0995 0.0119-0.2299 0.0808-0.3917l-0.1766-0.1432-1.917 2.3675 0.1766 0.1432c0.1584-0.1267 0.2999-0.1398 0.424-0.0394 0.0732 0.0592 0.1276 0.2531 0.1658 0.5825zm4.1627-12.283 4.9269 6.5384c0.0859 0.1139 0.1244 0.2211 0.1176 0.3203-9e-3 0.1006-0.0654 0.2188-0.1734 0.3608l0.1369 0.1814 2.412-1.8175-0.1369-0.1815c-0.1616 0.0672-0.2912 0.0922-0.3932 0.0689-0.0987-0.0224-0.1911-0.089-0.277-0.2027l-4.9271-6.5386c-0.0888-0.1177-0.1287-0.2268-0.1191-0.3308 6e-3 -0.1046 0.0638-0.2209 0.1709-0.3558l-0.1369-0.1817-2.4117 1.8176 0.1366 0.1814c0.1662-0.0646 0.2954-0.0862 0.3946-0.0672 0.097 0.0207 0.1911 0.0893 0.2798 0.207zm10.088-3.1913 4.5785 4.2268c0.1939 0.1777 0.3152 0.3282 0.3674 0.4507 0.0794 0.187-0.0111 0.3699-0.2747 0.5473l0.089 0.2092 3.0447-1.2923-0.0887-0.2092c-0.203 0.0544-0.3569 0.0567-0.4674 6e-3 -0.1083-0.051-0.3396-0.2369-0.6894-0.553l-5.9083-5.3487c-0.2514-0.2268-0.3943-0.3844-0.4311-0.4711-0.0944-0.2225-0.0114-0.4105 0.2455-0.5664l-0.0888-0.2095-3.0648 1.3011 0.0887 0.2092c0.2906-0.0762 0.4825-2e-3 0.5789 0.2245 0.0348 0.0823 0.0476 0.2923 0.0363 0.6308l-0.2569 7.9656c-0.0153 0.4711-0.0422 0.7665-0.0807 0.8799-0.0386 0.1136-0.1494 0.2239-0.3294 0.3316l0.0887 0.2092 3.1629-1.3425-0.0887-0.2092c-0.311 0.0664-0.5052 4e-3 -0.5845-0.1828-0.0522-0.1222-0.076-0.3144-0.0692-0.5771l0.142-6.2306zm9.6421-1.2274-0.3229-2.6303 6.1724-0.7579c0.1415-0.0173 0.2537 3e-3 0.3359 0.0586 0.0828 0.0581 0.1574 0.1684 0.2257 0.3306l0.2256-0.0278-0.305-2.484-0.2256 0.0278c-0.027 0.1763-0.0726 0.2987-0.1389 0.375-0.0664 0.0742-0.1704 0.121-0.3118 0.1383l-8.7188 1.0707 0.0277 0.2256c0.1761 0.0269 0.2988 0.0728 0.3751 0.1389 0.0739 0.0663 0.121 0.1729 0.1389 0.3192l0.9969 8.119c0.0179 0.1462-2e-3 0.2605-0.0575 0.343-0.0582 0.0827-0.1662 0.1567-0.3306 0.2256l0.0278 0.2256 8.551-1.0496c0.1415-0.0176 0.2537 3e-3 0.3362 0.0609 0.0828 0.0604 0.1573 0.1704 0.2259 0.3325l0.2257-0.0275-0.3048-2.4814-0.2256 0.0277c-0.0275 0.1713-0.074 0.2914-0.14 0.368-0.0664 0.0737-0.1701 0.1207-0.3116 0.1383l-6.0046 0.737-0.2798-2.2773 3.8951-0.4782c0.1415-0.0176 0.2537 3e-3 0.3359 0.0586 0.0828 0.0579 0.1571 0.1681 0.2259 0.33l0.2254-0.0275-0.2982-2.4287-0.2254 0.0278c-0.0277 0.1714-0.0737 0.2939-0.1397 0.3704-0.0658 0.0786-0.1698 0.1256-0.3113 0.1429zm11.424-0.4243 0.6122-3.1496c0.0273-0.1403 0.0811-0.2407 0.1647-0.303 0.082-0.0655 0.2067-0.1004 0.379-0.1112l0.0434-0.223-2.9645-0.5763-0.0433 0.2231c0.159 0.0802 0.2616 0.1618 0.3138 0.2483 0.0496 0.0859 0.062 0.199 0.0348 0.3393l-1.5622 8.0365c-0.0283 0.1448-0.0824 0.2475-0.1607 0.3087-0.0808 0.0606-0.2066 0.0978-0.3841 0.1125l-0.0433 0.2231 5.9383 1.1543c0.7239 0.1409 1.3064 0.2095 1.7452 0.2089 0.4408-9e-4 0.8394-0.0734 1.1957-0.2211 0.4127-0.1709 0.7492-0.4453 1.012-0.8206 0.2483-0.3654 0.4167-0.7762 0.5048-1.2294 0.3013-1.5497-0.3818-2.6238-2.0514-3.2213l2.3536-2.2621c0.4124-0.3977 0.7092-0.6454 0.8847-0.7492 0.1774-0.1012 0.3742-0.1391 0.5953-0.1108l0.0433-0.2231-3.4341-0.6675-0.0434 0.223c0.2299 0.0839 0.3325 0.1902 0.3075 0.3184-0.0167 0.0856-0.1649 0.2661-0.4453 0.5417l-2.4658 2.4222zm-0.3039 1.5641 3.1992 0.6219c0.4725 0.0919 0.8042 0.171 0.9935 0.2373 0.1894 0.0638 0.356 0.1579 0.5003 0.2769 0.3167 0.2586 0.4258 0.6347 0.3288 1.1331-0.0963 0.4963-0.3381 0.8039-0.7287 0.9249-0.1843 0.0604-0.3739 0.085-0.5664 0.0746-0.1928-0.0103-0.5295-0.0633-1.0114-0.1571l-3.1995-0.6219zm15.606 9.1772 5e-3 -2.5506-0.2285 0.011c-0.0175 0.0454-0.0317 0.0788-0.0447 0.1046-0.0726 0.142-0.2747 0.2347-0.6013 0.2744-1.0153 0.1392-2.0273-0.0479-3.0376-0.5627-0.4459-0.2273-0.8107-0.481-1.0973-0.7653-0.2049-0.2103-0.3404-0.4394-0.4079-0.6854-0.0672-0.2461-0.0513-0.4686 0.0496-0.6667 0.1647-0.3232 0.4726-0.4431 0.923-0.3629 0.2321 0.0451 0.6979 0.201 1.3978 0.4734l1.0428 0.4037c0.6197 0.2372 1.1395 0.3937 1.5599 0.4694 0.4198 0.0757 0.8212 0.0873 1.2022 0.0317 0.3906-0.0586 0.7554-0.2148 1.0936-0.4685 0.337-0.2517 0.6044-0.5687 0.7988-0.9499 0.3093-0.6075 0.3878-1.2461 0.2373-1.9143-0.1338-0.6108-0.5219-1.2075-1.162-1.7943-0.4767-0.4382-1.0318-0.8186-1.6676-1.1426-1.1395-0.5806-2.4032-0.8799-3.7939-0.8992-0.2908-0.01-0.4583-0.0272-0.5057-0.0516-0.0538-0.0275-0.117-0.1165-0.1882-0.2695l-0.2313 1e-3 -0.1443 2.5888 0.2282 5e-3c0.0187-0.0366 0.0329-0.0644 0.0417-0.082 0.0966-0.1893 0.2761-0.3177 0.5383-0.3849 0.3974-0.104 0.9275-0.1001 1.5905 0.0153 0.6608 0.1142 1.2489 0.3025 1.7617 0.5638 0.5602 0.2855 0.9899 0.6239 1.2875 1.0143 0.1661 0.2174 0.2702 0.4444 0.3096 0.6868 0.0425 0.2415 0.0147 0.4555-0.0817 0.6452-0.1459 0.2863-0.4019 0.411-0.7727 0.3767-0.2562-0.0247-0.7288-0.1675-1.4179-0.4292l-1.023-0.394c-0.6868-0.2656-1.1806-0.436-1.4808-0.5128-0.3011-0.0745-0.6197-0.1151-0.9581-0.1165-0.4771-7e-3 -0.9236 0.1239-1.3343 0.392-0.3716 0.2396-0.6704 0.5811-0.8955 1.0228-0.371 0.7282-0.4274 1.4567-0.1681 2.1886 0.3357 0.9604 1.1608 1.7745 2.475 2.444 0.5493 0.2801 1.093 0.4862 1.6239 0.616 0.5321 0.1327 1.2297 0.2276 2.0946 0.2937 0.2928 0.0272 0.4665 0.0533 0.5227 0.0819 0.0884 0.0451 0.1644 0.1463 0.2335 0.3036l0.2248-5e-3zm6.3488-5.0085-5.1523 6.3626c-0.0895 0.1106-0.1845 0.174-0.2823 0.1913-0.0998 0.0156-0.2282-0.0107-0.3917-0.0807l-0.1432 0.1765 2.3471 1.9007 0.1429-0.1769c-0.1044-0.1406-0.1599-0.2599-0.1619-0.3645-2e-3 -0.1015 0.04-0.2073 0.1298-0.3181l5.1523-6.3623c0.0927-0.1149 0.189-0.18 0.2922-0.1956 0.1029-0.0196 0.2296 8e-3 0.3867 0.0796l0.1428-0.1769-2.3468-1.9003-0.1431 0.1766c0.1029 0.1454 0.155 0.2656 0.1607 0.3665 3e-3 0.0992-0.0405 0.2069-0.1332 0.3215zm1.8949 12.165 5.7771-4.5136c0.1162-0.0907 0.2247-0.1327 0.324-0.1273 0.1003 7e-3 0.2211 0.0632 0.3636 0.1673l0.1789-0.1401-1.8592-2.3799-0.1792 0.14c0.0678 0.165 0.0916 0.2937 0.0743 0.3932-0.019 0.0975-0.0859 0.1927-0.2021 0.2834l-5.777 4.5136-1.8491-2.3663c-0.0876-0.1126-0.1298-0.2177-0.1244-0.3169 3e-3 -0.0978 0.0595-0.2183 0.163-0.3606l-0.1398-0.1792-1.9701 1.5393 0.1401 0.1791c0.1684-0.0672 0.3022-0.0921 0.3997-0.0731 0.0963 0.017 0.1882 0.0799 0.2761 0.1922l4.9926 6.3904c0.091 0.1165 0.133 0.2248 0.1276 0.3243-5e-3 0.0992-0.0632 0.2211-0.1707 0.3665l0.1401 0.1791 1.9698-1.5392-0.1398-0.1791c-0.1633 0.066-0.2939 0.0915-0.3892 0.0711-0.0981-0.019-0.191-0.0873-0.282-0.2035zm9.4014 8.6267 3.0813-1.1826c0.1375-0.053 0.2537-0.0613 0.3478-0.0247 0.095 0.0386 0.1942 0.1273 0.2996 0.2682l0.2123-0.0817-1.0882-2.8349-0.2123 0.0813c0.0156 0.1755 2e-3 0.3099-0.0425 0.402-0.0445 0.0924-0.1355 0.1664-0.2733 0.2191l-3.081 1.1829-5.2256-1.3405c-0.4485-0.1154-0.7617-0.2228-0.9383-0.3186-0.1766-0.0952-0.3146-0.239-0.4178-0.4272l-0.2123 0.0814 1.3691 3.5665 0.2123-0.0813c-0.0663-0.3138 0.0142-0.5157 0.2398-0.6024 0.0794-0.0303 0.2877-7e-3 0.6256 0.0706l3.0459 0.6956-1.7791 2.6045c-0.1902 0.2803-0.3313 0.4382-0.424 0.4739-0.1018 0.0389-0.2055 0.0321-0.3079-0.0192-0.1026-0.0513-0.1916-0.1415-0.267-0.2707l-0.2123 0.0816 1.3405 3.492 0.2123-0.0814c-0.0493-0.2092-0.0428-0.4082 0.0247-0.5972 0.0672-0.1891 0.2279-0.4785 0.4838-0.8646z" fill="#0060aa"/><path d="m270.74 499.39c0.7874 0.8524 1.6976 1.0715 2.7266 0.656 0.8184-0.3308 1.3408-0.8836 1.5676-1.6586 0.1136-0.39 0.14-0.8022 0.0844-1.2362-0.0552-0.4342-0.1992-0.9391-0.4331-1.5176l-2.4763-6.1291-0.2107 0.0853c0.0196 0.1769 7e-3 0.3076-0.0371 0.3983-0.0451 0.0884-0.1358 0.1616-0.2724 0.2168l-7.5844 3.0643c-0.1366 0.0553-0.2523 0.0655-0.3464 0.0332-0.0946-0.0349-0.1941-0.1199-0.3033-0.2608l-0.2109 0.0853 2.452 6.0684c0.2356 0.5831 0.4697 1.0332 0.7001 1.3521 0.2314 0.3212 0.5046 0.5709 0.8232 0.7526 0.6293 0.3637 1.3368 0.3855 2.1215 0.0686 0.8745-0.3535 1.3425-1.0145 1.3992-1.9786zm-2.9682-5.3257 1.3878 3.4345c0.2109 0.5224 0.2815 0.9164 0.2104 1.1851-0.0819 0.3014-0.3059 0.5276-0.6738 0.6764-0.3765 0.1519-0.6897 0.1508-0.9369-3e-3 -0.248-0.1553-0.4782-0.4923-0.6894-1.0148l-1.3875-3.4344 2.0894-0.8442zm3.9212-1.5843 1.3422 3.3225c0.25 0.6185 0.3441 1.097 0.2832 1.4372-0.0712 0.3912-0.3314 0.6763-0.7776 0.8566-0.4416 0.1786-0.8271 0.1542-1.1545-0.076-0.2784-0.1978-0.5429-0.6074-0.7949-1.2305l-1.3422-3.3225zm3.0685 11.381 2.4936-2.0194c0.1111-0.0898 0.2169-0.1321 0.3209-0.1261 0.1049 2e-3 0.2231 0.0561 0.3617 0.1584l0.1766-0.1431-1.9004-2.3468-0.1768 0.1428c0.0705 0.1636 0.0966 0.2923 0.081 0.3921-0.017 0.0978-0.0805 0.1924-0.1916 0.2823l-6.3624 5.1523c-0.1145 0.0927-0.2222 0.1363-0.3217 0.1329-0.1006-5e-3 -0.2208-0.0578-0.3662-0.1604l-0.1769 0.1428 3.8072 4.7013c0.464 0.5734 0.8663 1.0006 1.2028 1.2821 0.3381 0.2826 0.6902 0.4833 1.0578 0.599 0.4261 0.1343 0.8604 0.1406 1.3028 0.0218 0.4252-0.1202 0.8181-0.3266 1.177-0.6171 1.2271-0.9936 1.3941-2.2553 0.4992-3.7863l3.257-0.2199c0.5714-0.0397 0.9581-0.0386 1.1591-5e-3 0.2009 0.0366 0.3761 0.1341 0.5275 0.2979l0.1766-0.1431-2.2017-2.719-0.1766 0.1431c0.1219 0.2121 0.1324 0.3595 0.0309 0.4414-0.0677 0.055-0.2973 0.0981-0.6894 0.129l-3.4458 0.2704-1.6222-2.003zm-1.2382 1.0026 2.0511 2.5331c0.3031 0.3739 0.506 0.6477 0.6086 0.8203 0.1038 0.1707 0.1713 0.3495 0.205 0.5338 0.0765 0.4017-0.0816 0.7599-0.4762 1.0794-0.3929 0.3181-0.7759 0.398-1.1529 0.2398-0.1797-0.0723-0.341-0.1752-0.4819-0.307-0.1409-0.1315-0.3648-0.3886-0.6738-0.7701l-2.0511-2.5331zm14.305 8.7112-3.7278-2.3295 0.1698-1.499c0.0218-0.2086 0.0632-0.3569 0.1207-0.449 0.1103-0.1763 0.3206-0.216 0.6336-0.1145l0.1205-0.1928-2.7151-1.6965-0.1204 0.1927c0.1394 0.1327 0.2276 0.2651 0.2619 0.3975 0.0343 0.1326 0.0332 0.3486-6e-3 0.6491l-0.9196 8.1839c-0.0292 0.2611-0.0819 0.4504-0.1576 0.5715-0.1151 0.1845-0.3121 0.2437-0.5958 0.178l-0.1205 0.1927 2.9075 1.8168 0.1205-0.1928c-0.1937-0.2149-0.2382-0.4082-0.133-0.5766 0.0717-0.1145 0.1939-0.2236 0.362-0.3237l7.0739-4.367c0.299-0.1866 0.53-0.296 0.6919-0.3317 0.1618-0.0357 0.3353-0.0159 0.5235 0.0564l0.1205-0.1927-3.0141-1.8837-0.1204 0.1928c0.2378 0.2083 0.2908 0.4156 0.1627 0.6205-0.0525 0.0842-0.1684 0.1828-0.3532 0.2954l-1.285 0.8022zm-1.2169 0.8022-3.1566 2.0903 0.4745-3.7662zm5.8575-0.4275-2.9338 7.6431c-0.0513 0.1332-0.1216 0.2228-0.2095 0.2696-0.0901 0.0453-0.2203 0.06-0.3977 0.0439l-0.0814 0.2123 2.8194 1.0823 0.0816-0.2123c-0.1428-0.1015-0.2327-0.1979-0.267-0.2968-0.0335-0.0956-0.0258-0.2092 0.0252-0.3425l2.9339-7.6433c0.053-0.1375 0.1244-0.2293 0.2177-0.2761 0.0918-0.0504 0.2208-0.0632 0.3923-0.0439l0.0814-0.2121-2.8194-1.0822-0.0813 0.212c0.1428 0.1066 0.2296 0.205 0.2658 0.2991 0.0341 0.0932 0.0256 0.2092-0.0272 0.3469zm4.6826 7.8313 0.7163-5.834c0.0181-0.1463 0.0655-0.2528 0.1392-0.3192 0.0762-0.066 0.2012-0.1117 0.3753-0.1389l0.0275-0.2256-2.8222-0.3467-0.0278 0.2257c0.1644 0.0688 0.2724 0.1431 0.3306 0.2256 0.0555 0.0822 0.0754 0.197 0.0575 0.3433l-0.9978 8.126c-0.0173 0.1415-0.0641 0.2455-0.138 0.3121-0.0763 0.0661-0.199 0.1117-0.3751 0.1389l-0.0277 0.2257 3.2638 0.4008 0.0275-0.2256c-0.1953-0.0752-0.2827-0.1956-0.2622-0.3615 0.0136-0.1125 0.0935-0.2267 0.2423-0.3478l5.9701-4.8551-0.6993 5.695c-0.0173 0.1415-0.0644 0.2452-0.1384 0.3118-0.0762 0.0661-0.1987 0.112-0.375 0.1392l-0.0278 0.2257 2.8222 0.3464 0.0278-0.2257c-0.1622-0.0686-0.2724-0.1431-0.3305-0.2256-0.0556-0.0825-0.0757-0.1948-0.0584-0.3362l0.9978-8.1258c0.0181-0.1466 0.0652-0.2528 0.1389-0.3192 0.0762-0.066 0.2012-0.1119 0.3753-0.1392l0.0275-0.2256-3.0238-0.3711-0.0275 0.2257c0.1914 0.0672 0.2776 0.1803 0.258 0.3387-0.0116 0.0933-0.1468 0.2424-0.4059 0.4493zm18.785-0.2937-3.4089-4.9427c-0.1865-0.2472-0.2903-0.4071-0.3076-0.4825-0.0485-0.2098 0.0887-0.4003 0.4079-0.5655l-0.051-0.2217-3.0322 0.7002 0.051 0.2214c0.3223-0.0125 0.5119 0.1102 0.57 0.3622 0.0159 0.0683-2e-4 0.288-0.0513 0.6597l-1.0927 7.5727c-0.055 0.3747-0.1213 0.6358-0.2016 0.7835-0.0799 0.1471-0.2194 0.2639-0.4167 0.3541l0.0511 0.2216 3.27-0.7548-0.0513-0.2217c-0.3041 3e-3 -0.4796-0.1001-0.5272-0.3076-0.0247-0.106-0.0241-0.2647 6e-3 -0.4802l0.7149-5.4158 3.1717 4.5482c0.1369 0.1944 0.2146 0.3279 0.2305 0.396 0.049 0.212-0.0749 0.3846-0.3677 0.5142l0.051 0.2216 3.4234-0.7903-0.0513-0.2216c-0.3325-0.0102-0.5227-0.1248-0.5723-0.3394-0.0173-0.0754-0.011-0.2205 0.0221-0.4419l0.7668-5.4278 2.986 4.4748c0.1528 0.2203 0.2441 0.3904 0.2719 0.5105 0.0467 0.2024-0.0896 0.3756-0.4048 0.5151l0.0513 0.2217 3.2369-0.7475-0.0511-0.2214c-0.2454-0.0102-0.4223-0.0564-0.5329-0.1378-0.1105-0.0808-0.2798-0.2877-0.5074-0.6171l-4.3018-6.3272c-0.2064-0.3025-0.3206-0.5065-0.3461-0.6174-0.0525-0.2262 0.0776-0.4051 0.3926-0.5349l-0.0513-0.2214-3.072 0.709 0.0514 0.2216c0.3339-0.0249 0.53 0.0936 0.5893 0.3504 0.0201 0.087-3e-3 0.3107-0.0686 0.671l-0.8476 5.8087zm12.411-10.672-3.6008 2.5215-1.3136-0.7422c-0.1831-0.1014-0.3036-0.1975-0.3659-0.2865-0.1194-0.1704-0.0737-0.3796 0.142-0.6279l-0.1304-0.1862-2.6223 1.8362 0.1304 0.1863c0.1763-0.0766 0.3327-0.106 0.468-0.0859 0.1354 0.0204 0.3339 0.1057 0.5949 0.2596l7.174 4.0442c0.229 0.129 0.3826 0.2515 0.4646 0.3685 0.1247 0.178 0.1026 0.3824-0.0689 0.618l0.1304 0.1862 2.8083-1.9667-0.1304-0.1862c-0.2733 0.0944-0.4689 0.0598-0.5826-0.1026-0.0776-0.1108-0.1301-0.2659-0.1567-0.4601l-1.2558-8.2176c-0.0549-0.3481-0.0654-0.6035-0.0351-0.7665 0.0306-0.163 0.1165-0.3149 0.2565-0.4601l-0.1304-0.1862-2.9114 2.0387 0.1304 0.1862c0.2846-0.1375 0.496-0.1054 0.6346 0.0927 0.057 0.0811 0.1027 0.2265 0.1341 0.4405zm0.2631 1.4338 0.6908 3.7225-3.2814-1.9086zm6.0004-5.1695-2.4937-2.0192c-0.1111-0.0898-0.1743-0.1848-0.1899-0.288-0.0195-0.1029 8e-3 -0.2296 0.0797-0.3866l-0.1769-0.1429-1.9004 2.3468 0.1766 0.1432c0.1455-0.1029 0.2657-0.1551 0.3666-0.1607 0.0992-3e-3 0.2049 0.0388 0.316 0.1286l6.3624 5.1523c0.1145 0.0927 0.1797 0.1891 0.197 0.2869 0.0156 0.0997-0.0108 0.2282-0.0808 0.3917l0.1766 0.1432 3.8069-4.7013c0.4644-0.5732 0.7986-1.0553 1.0038-1.4431 0.2063-0.3895 0.3294-0.7756 0.3662-1.1594 0.0428-0.4445-0.0416-0.8705-0.2494-1.2787-0.2064-0.3909-0.4896-0.7322-0.8484-1.023-1.2272-0.9936-2.4959-0.8946-3.8075 0.2988l-0.8921-3.14c-0.1576-0.5508-0.2373-0.9292-0.2463-1.1327-6e-3 -0.2041 0.0527-0.3957 0.1817-0.5777l-0.1769-0.1432-2.2017 2.719 0.1766 0.1429c0.182-0.1633 0.324-0.2041 0.4255-0.1219 0.0677 0.0547 0.1576 0.2704 0.2693 0.6474l0.9811 3.3143zm1.2382 1.0026 2.0511-2.5328c0.3027-0.3742 0.5287-0.6298 0.6758-0.7659 0.1454-0.1372 0.3067-0.2401 0.4796-0.3115 0.377-0.1585 0.7603-0.078 1.1548 0.2415 0.3929 0.318 0.5508 0.676 0.4743 1.0777-0.0332 0.1908-0.1004 0.3699-0.1999 0.5352s-0.3044 0.4377-0.6134 0.8192l-2.0511 2.533zm5.3302-10.681-2.4573-0.9926 2.3298-5.766c0.0533-0.1324 0.1255-0.2205 0.214-0.2653 0.091-0.0442 0.2236-0.0559 0.3985-0.0372l0.0851-0.2109-2.3205-0.9374-0.085 0.2106c0.1412 0.1092 0.2259 0.2087 0.2608 0.3036 0.0326 0.0939 0.0232 0.2075-0.0304 0.3396l-3.2907 8.1448 0.2109 0.085c0.1089-0.1408 0.2086-0.2259 0.3036-0.2607 0.0938-0.0324 0.2095-0.0219 0.3464 0.0331l7.5841 3.0643c0.1369 0.0553 0.227 0.1281 0.2724 0.2168 0.0439 0.0907 0.0564 0.2211 0.0371 0.3983l0.2109 0.0853 3.2273-7.9877c0.0533-0.1324 0.1253-0.2206 0.2162-0.2645 0.093-0.0431 0.2254-0.055 0.4006-0.0363l0.085-0.2109-2.3179-0.9365-0.085 0.2108c0.1363 0.1072 0.2191 0.2061 0.254 0.3008 0.0323 0.0938 0.0229 0.2075-0.0304 0.3396l-2.2663 5.6092-2.1274-0.8595 1.4701-3.6385c0.0533-0.1324 0.1253-0.2206 0.214-0.2653 0.0907-0.0446 0.2234-0.0562 0.3983-0.0377l0.085-0.2104-2.2685-0.9167-0.0851 0.2106c0.1366 0.1074 0.2214 0.2069 0.256 0.3019 0.0371 0.0955 0.0278 0.2092-0.0255 0.3416z" fill="#0060aa"/></g></g></g></svg>
